<?xml version="1.0" encoding="UTF-8"?>
<svg version="1.1" xmlns="http://www.w3.org/2000/svg" width="600" height="600">
<path d="M0 0 C1.22976563 0.2784375 2.45953125 0.556875 3.7265625 0.84375 C23.53342557 5.60067778 41.12022736 15.40977787 57 28 C57.93714844 28.70640625 58.87429688 29.4128125 59.83984375 30.140625 C60.55269531 30.75421875 61.26554688 31.3678125 62 32 C62 32.66 62 33.32 62 34 C62.556875 34.226875 63.11375 34.45375 63.6875 34.6875 C66.66159588 36.37550036 68.72008865 38.46676517 71 41 C71 41.66 71 42.32 71 43 C71.66 43 72.32 43 73 43 C99.71197386 74.02308357 110.71854554 112.92434125 107.7265625 153.3828125 C104.41066773 184.35201836 91.16757876 213.00539336 70.04296875 235.74609375 C67.95327175 237.99370782 67.95327175 237.99370782 66.04296875 240.5234375 C62.31976182 245.03684705 57.61249041 248.43943194 53 252 C52.46552246 252.41475586 51.93104492 252.82951172 51.38037109 253.25683594 C22.90278278 275.11858914 -11.7516653 283.68385953 -47.37109375 280.5 C-84.08774418 275.44108584 -118.1694247 256.32919399 -140.87866211 226.89013672 C-164.51709053 195.38457276 -175.02587762 157.50172357 -170.22875977 118.2800293 C-166.30486144 90.91022917 -155.18865467 64.4071992 -136.06640625 44.1875 C-134.19610264 42.20759448 -132.4766407 40.16671077 -130.75 38.0625 C-100.07530768 3.0763878 -44.4191329 -11.57892004 0 0 Z M-117 53 C-117.8765625 53.85207031 -118.753125 54.70414063 -119.65625 55.58203125 C-140.83437311 77.39683844 -151.64525961 109.03933791 -151.35351562 139.15527344 C-150.42598923 169.53838809 -139.70630621 196.96932561 -120 220 C-119.35160156 220.78375 -118.70320313 221.5675 -118.03515625 222.375 C-103.3949684 239.61988385 -82.72747706 251.28437637 -61 257 C-59.2365625 257.556875 -59.2365625 257.556875 -57.4375 258.125 C-39.87667325 262.59502863 -18.43873574 261.63279639 -1 257 C0.04929687 256.75636719 1.09859375 256.51273438 2.1796875 256.26171875 C17.11731753 252.33174377 31.24154613 243.87430993 43 234 C43.86882812 233.27039063 44.73765625 232.54078125 45.6328125 231.7890625 C69.87624926 210.65946165 85.10663117 181.12437751 87.75390625 148.9609375 C89.81508149 115.78583128 81.11581532 84.73907444 59.609375 59.15625 C57.45097048 56.71886802 55.26332804 54.34018128 53 52 C52.48928955 51.46157471 51.9785791 50.92314941 51.45239258 50.3684082 C47.3050117 46.08491297 42.94663674 42.4746114 38.0625 39.0625 C37.32523682 38.54743896 36.58797363 38.03237793 35.82836914 37.50170898 C-12.55609992 4.4421704 -75.89795424 12.36381292 -117 53 Z " fill="#091926" transform="translate(334,167)"/>
<path d="M0 0 C66.66 0 133.32 0 202 0 C202 27.82122796 188.41375297 51.68349061 169.65625 71.47265625 C149.2522217 90.62046639 122.41411556 98.62633654 95.01171875 98.27734375 C68.80229503 97.4423312 44.10596275 84.26660665 26.1796875 65.51953125 C12.78306325 50.03418602 3.91656986 32.14209432 0.1875 12 C0.05110107 11.26918213 -0.08529785 10.53836426 -0.22583008 9.78540039 C-0.86404128 6.02655949 -0.94205848 3.76823392 0 0 Z M24 20 C28.75265762 39.21908037 41.93943415 54.99591524 58.4765625 65.5859375 C60.62052306 66.80158524 62.78858349 67.91317481 65 69 C65.60714844 69.34417969 66.21429688 69.68835938 66.83984375 70.04296875 C75.76040532 74.96530822 85.830097 77.70137262 96 77 C96 72.05 96 67.1 96 62 C94.741875 61.5875 93.48375 61.175 92.1875 60.75 C90.45786964 60.16804299 88.72873587 59.58460879 87 59 C85.68322266 58.56494141 85.68322266 58.56494141 84.33984375 58.12109375 C66.08011331 51.84184832 54.6218242 41.41723754 45 25 C44.61199219 24.04351562 44.22398437 23.08703125 43.82421875 22.1015625 C42.24077319 19.84511562 42.24077319 19.84511562 40.08056641 19.61352539 C37.63797575 19.50592341 35.254205 19.56475381 32.8125 19.6875 C31.5450293 19.72133789 31.5450293 19.72133789 30.25195312 19.75585938 C28.16721202 19.81475037 26.08338196 19.90443202 24 20 Z M66 20 C71.97923216 29.96538694 80.55045955 37.36814372 91.87109375 40.50390625 C99.30966749 41.68330558 108.8364869 42.3878377 116 40 C116 51.88 116 63.76 116 76 C123.30780563 74.53843887 128.60813172 73.2750904 135 70 C136.03898437 69.50113281 137.07796875 69.00226563 138.1484375 68.48828125 C157.2651741 58.58624128 170.95967885 41.20112249 178 21 C178 20.67 178 20.34 178 20 C141.04 20 104.08 20 66 20 Z " fill="#091926" transform="translate(202,313)"/>
<path d="M0 0 C1.70577396 1.47918608 3.39439844 2.97845689 5.0625 4.5 C5.82820312 5.18449219 6.59390625 5.86898437 7.3828125 6.57421875 C23.69434584 21.94798101 35.38660911 44.21264561 38.0625 66.5 C38.0625 68.15 38.0625 69.8 38.0625 71.5 C-28.5975 71.5 -95.2575 71.5 -163.9375 71.5 C-163.9375 60.13076923 -163.9375 60.13076923 -163.0625 55.9375 C-162.90007812 55.11121094 -162.73765625 54.28492188 -162.5703125 53.43359375 C-162.36148438 52.79550781 -162.15265625 52.15742188 -161.9375 51.5 C-158.61930503 49.84090252 -154.9139597 50.51469916 -151.2734375 50.60546875 C-148.56104039 50.62951902 -145.8486989 50.64300045 -143.13623047 50.65649414 C-141.26416335 50.6770503 -139.3922019 50.71720002 -137.52099609 50.77758789 C-126.5151259 51.48445361 -126.5151259 51.48445361 -117.05566406 46.95947266 C-115.03450602 43.8888124 -113.46210183 40.83997823 -111.9375 37.5 C-102.04625309 23.23741408 -85.28528506 16.04530278 -68.9375 12.5 C-68.6075 7.88 -68.2775 3.26 -67.9375 -1.5 C-89.72293288 2.61783789 -108.01933812 8.86773899 -123.08227539 25.82836914 C-126.39994082 29.4588989 -126.39994082 29.4588989 -128.87890625 29.6484375 C-131.94910658 27.93565022 -134.54707001 25.7336634 -137.1875 23.4375 C-138.01894531 22.72883789 -138.01894531 22.72883789 -138.8671875 22.00585938 C-140.229249 20.84341033 -141.58409956 19.67252145 -142.9375 18.5 C-140.58731244 7.66175641 -126.59430315 -0.72128983 -117.9375 -6.5 C-81.7042517 -29.30902722 -33.45516551 -26.66176612 0 0 Z M-47.9375 0.5 C-47.9375 11.39 -47.9375 22.28 -47.9375 33.5 C-58.3125 33.25 -58.3125 33.25 -61.51708984 33.13964844 C-73.30794773 33.00399559 -83.52044698 38.07412328 -91.9375 46.25 C-93.96071192 48.32977927 -93.96071192 48.32977927 -94.9375 50.5 C-59.6275 50.5 -24.3175 50.5 12.0625 50.5 C7.83271642 33.5808657 -6.90790351 19.55133761 -21.0625 10.3125 C-28.92202396 5.64912015 -38.67926721 0.5 -47.9375 0.5 Z " fill="#081926" transform="translate(365.9375,221.5)"/>
<path d="M0 0 C0 1.32 0 2.64 0 4 C-0.495 3.01 -0.495 3.01 -1 2 C-38.29 2 -75.58 2 -114 2 C-114 1.67 -114 1.34 -114 1 C-100.02217608 0.86927676 -86.04434918 0.73887703 -72.06651878 0.60884857 C-65.57608275 0.548462 -59.08564771 0.48797207 -52.59521484 0.42724609 C-46.33178555 0.36864782 -40.06835378 0.31032081 -33.8049202 0.25218201 C-31.41512588 0.22995162 -29.02533248 0.20762344 -26.63554001 0.18519592 C-23.2887673 0.15380412 -19.94199154 0.12275979 -16.59521484 0.09179688 C-15.11275269 0.07777077 -15.11275269 0.07777077 -13.6003418 0.0634613 C-9.06670291 0.02186075 -4.53389475 -0.01112685 0 0 Z " fill="#051019" transform="translate(381,331)"/>
<path d="M0 0 C0.33 0 0.66 0 1 0 C1.03738281 1.28390625 1.07476562 2.5678125 1.11328125 3.890625 C1.47568743 14.19808534 2.26080036 24.24954873 3.98364258 34.42480469 C4.69812373 38.67726941 5.16000196 42.66603382 5 47 C2.07422062 44.07422062 2.57340823 41.21663843 2.34375 37.21484375 C2.2303125 36.48394531 2.116875 35.75304687 2 35 C1.34 34.67 0.68 34.34 0 34 C0 22.78 0 11.56 0 0 Z " fill="#07131C" transform="translate(182,292)"/>
<path d="M0 0 C26.55569879 -0.46482306 26.55569879 -0.46482306 35 2 C35.495 2.99 35.495 2.99 36 4 C27.55384615 4 27.55384615 4 23.5625 3.5625 C22.41974609 3.44068359 22.41974609 3.44068359 21.25390625 3.31640625 C19 3 19 3 17.19921875 2.5 C13.91790417 1.75398177 10.59973222 1.63063201 7.25 1.4375 C6.55261719 1.39431641 5.85523438 1.35113281 5.13671875 1.30664062 C3.42468078 1.20110404 1.71236439 1.1001009 0 1 C0 0.67 0 0.34 0 0 Z " fill="#07131C" transform="translate(296,164)"/>
<path d="M0 0 C0.66 0 1.32 0 2 0 C3.12109375 1.51171875 3.12109375 1.51171875 4.4375 3.6875 C8.67071006 10.29595262 13.864747 16.08806282 19 22 C18.01 22.33 17.02 22.66 16 23 C15.443125 22.113125 14.88625 21.22625 14.3125 20.3125 C12.8772613 18.15462364 11.54494623 16.54494623 9.6875 14.6875 C6.10109238 11.10109238 2.76807907 7.25981044 0 3 C0 2.01 0 1.02 0 0 Z " fill="#07141C" transform="translate(201,371)"/>
<path d="M0 0 C3.68754757 0.49831724 5.60490662 1.10067643 8 4 C4.88742431 4 2.89234315 3.82638376 0 3 C0 2.01 0 1.02 0 0 Z " fill="#06131B" transform="translate(281,348)"/>
<path d="M0 0 C2.64 0 5.28 0 8 0 C8 0.99 8 1.98 8 3 C6.35 2.67 4.7 2.34 3 2 C3 2.66 3 3.32 3 4 C1 3 1 3 0 0 Z " fill="#06131B" transform="translate(319,202)"/>
<path d="M0 0 C6.625 -0.25 6.625 -0.25 10 2 C10 2.66 10 3.32 10 4 C8.68 4 7.36 4 6 4 C6 3.34 6 2.68 6 2 C3.03 1.505 3.03 1.505 0 1 C0 0.67 0 0.34 0 0 Z " fill="#07131C" transform="translate(336,169)"/>
<path d="M0 0 C2.76262553 0.3810518 3.84143894 0.83597132 5.8125 2.875 C6.204375 3.57625 6.59625 4.2775 7 5 C6.67 5.99 6.34 6.98 6 8 C6 7.34 6 6.68 6 6 C5.01 5.67 4.02 5.34 3 5 C1.3125 2.4375 1.3125 2.4375 0 0 Z " fill="#06131B" transform="translate(238,360)"/>
<path d="M0 0 C3 1 3 1 4.6875 3.9375 C6 7 6 7 6 9 C5.34 9 4.68 9 4 9 C3.3309224 7.68872739 2.66480194 6.3759455 2 5.0625 C1.62875 4.33160156 1.2575 3.60070312 0.875 2.84765625 C0 1 0 1 0 0 Z " fill="#07141C" transform="translate(193,358)"/>
<path d="M0 0 C2.64 0.33 5.28 0.66 8 1 C8 1.99 8 2.98 8 4 C5.64828869 3.40138258 3.3140622 2.73075648 1 2 C0.67 1.34 0.34 0.68 0 0 Z " fill="#07141C" transform="translate(265,422)"/>
</svg>
